<svg viewBox="0 0 64 64" fill="none" xmlns="http://www.w3.org/2000/svg">
  <!-- Row 1 (top) -->
  <circle cx="22" cy="7" r="0.5" fill="white" opacity="0.25"/>
  <circle cx="27" cy="7" r="0.6" fill="white" opacity="0.3"/>
  <circle cx="32" cy="7" r="0.7" fill="white" opacity="0.35"/>
  <circle cx="37" cy="7" r="0.6" fill="white" opacity="0.3"/>
  <circle cx="42" cy="7" r="0.5" fill="white" opacity="0.25"/>
  
  <!-- Row 2 -->
  <circle cx="17" cy="12" r="0.6" fill="white" opacity="0.3"/>
  <circle cx="22" cy="12" r="0.9" fill="white" opacity="0.45"/>
  <circle cx="27" cy="12" r="1.1" fill="white" opacity="0.55"/>
  <circle cx="32" cy="12" r="1.2" fill="white" opacity="0.6"/>
  <circle cx="37" cy="12" r="1.1" fill="white" opacity="0.55"/>
  <circle cx="42" cy="12" r="0.9" fill="white" opacity="0.45"/>
  <circle cx="47" cy="12" r="0.6" fill="white" opacity="0.3"/>
  
  <!-- Row 3 -->
  <circle cx="12" cy="17" r="0.6" fill="white" opacity="0.3"/>
  <circle cx="17" cy="17" r="1.0" fill="white" opacity="0.5"/>
  <circle cx="22" cy="17" r="1.4" fill="white" opacity="0.65"/>
  <circle cx="27" cy="17" r="1.7" fill="white" opacity="0.75"/>
  <circle cx="32" cy="17" r="1.8" fill="white" opacity="0.8"/>
  <circle cx="37" cy="17" r="1.7" fill="white" opacity="0.75"/>
  <circle cx="42" cy="17" r="1.4" fill="white" opacity="0.65"/>
  <circle cx="47" cy="17" r="1.0" fill="white" opacity="0.5"/>
  <circle cx="52" cy="17" r="0.6" fill="white" opacity="0.3"/>
  
  <!-- Row 4 -->
  <circle cx="12" cy="22" r="0.9" fill="white" opacity="0.45"/>
  <circle cx="17" cy="22" r="1.4" fill="white" opacity="0.65"/>
  <circle cx="22" cy="22" r="1.9" fill="white" opacity="0.82"/>
  <circle cx="27" cy="22" r="2.2" fill="white" opacity="0.9"/>
  <circle cx="32" cy="22" r="2.3" fill="white" opacity="0.92"/>
  <circle cx="37" cy="22" r="2.2" fill="white" opacity="0.9"/>
  <circle cx="42" cy="22" r="1.9" fill="white" opacity="0.82"/>
  <circle cx="47" cy="22" r="1.4" fill="white" opacity="0.65"/>
  <circle cx="52" cy="22" r="0.9" fill="white" opacity="0.45"/>
  
  <!-- Row 5 (near center) -->
  <circle cx="12" cy="27" r="1.1" fill="white" opacity="0.55"/>
  <circle cx="17" cy="27" r="1.7" fill="white" opacity="0.75"/>
  <circle cx="22" cy="27" r="2.2" fill="white" opacity="0.9"/>
  <circle cx="27" cy="27" r="2.5" fill="white" opacity="0.95"/>
  <circle cx="32" cy="27" r="2.6" fill="white" opacity="1"/>
  <circle cx="37" cy="27" r="2.5" fill="white" opacity="0.95"/>
  <circle cx="42" cy="27" r="2.2" fill="white" opacity="0.9"/>
  <circle cx="47" cy="27" r="1.7" fill="white" opacity="0.75"/>
  <circle cx="52" cy="27" r="1.1" fill="white" opacity="0.55"/>
  
  <!-- Row 6 (center) -->
  <circle cx="7" cy="32" r="0.7" fill="white" opacity="0.35"/>
  <circle cx="12" cy="32" r="1.2" fill="white" opacity="0.6"/>
  <circle cx="17" cy="32" r="1.8" fill="white" opacity="0.8"/>
  <circle cx="22" cy="32" r="2.3" fill="white" opacity="0.92"/>
  <circle cx="27" cy="32" r="2.6" fill="white" opacity="1"/>
  <circle cx="32" cy="32" r="2.7" fill="white" opacity="1"/>
  <circle cx="37" cy="32" r="2.6" fill="white" opacity="1"/>
  <circle cx="42" cy="32" r="2.3" fill="white" opacity="0.92"/>
  <circle cx="47" cy="32" r="1.8" fill="white" opacity="0.8"/>
  <circle cx="52" cy="32" r="1.2" fill="white" opacity="0.6"/>
  <circle cx="57" cy="32" r="0.7" fill="white" opacity="0.35"/>
  
  <!-- Row 7 (mirror of 5) -->
  <circle cx="12" cy="37" r="1.1" fill="white" opacity="0.55"/>
  <circle cx="17" cy="37" r="1.7" fill="white" opacity="0.75"/>
  <circle cx="22" cy="37" r="2.2" fill="white" opacity="0.9"/>
  <circle cx="27" cy="37" r="2.5" fill="white" opacity="0.95"/>
  <circle cx="32" cy="37" r="2.6" fill="white" opacity="1"/>
  <circle cx="37" cy="37" r="2.5" fill="white" opacity="0.95"/>
  <circle cx="42" cy="37" r="2.2" fill="white" opacity="0.9"/>
  <circle cx="47" cy="37" r="1.7" fill="white" opacity="0.75"/>
  <circle cx="52" cy="37" r="1.1" fill="white" opacity="0.55"/>
  
  <!-- Row 8 (mirror of 4) -->
  <circle cx="12" cy="42" r="0.9" fill="white" opacity="0.45"/>
  <circle cx="17" cy="42" r="1.4" fill="white" opacity="0.65"/>
  <circle cx="22" cy="42" r="1.9" fill="white" opacity="0.82"/>
  <circle cx="27" cy="42" r="2.2" fill="white" opacity="0.9"/>
  <circle cx="32" cy="42" r="2.3" fill="white" opacity="0.92"/>
  <circle cx="37" cy="42" r="2.2" fill="white" opacity="0.9"/>
  <circle cx="42" cy="42" r="1.9" fill="white" opacity="0.82"/>
  <circle cx="47" cy="42" r="1.4" fill="white" opacity="0.65"/>
  <circle cx="52" cy="42" r="0.9" fill="white" opacity="0.45"/>
  
  <!-- Row 9 (mirror of 3) -->
  <circle cx="12" cy="47" r="0.6" fill="white" opacity="0.3"/>
  <circle cx="17" cy="47" r="1.0" fill="white" opacity="0.5"/>
  <circle cx="22" cy="47" r="1.4" fill="white" opacity="0.65"/>
  <circle cx="27" cy="47" r="1.7" fill="white" opacity="0.75"/>
  <circle cx="32" cy="47" r="1.8" fill="white" opacity="0.8"/>
  <circle cx="37" cy="47" r="1.7" fill="white" opacity="0.75"/>
  <circle cx="42" cy="47" r="1.4" fill="white" opacity="0.65"/>
  <circle cx="47" cy="47" r="1.0" fill="white" opacity="0.5"/>
  <circle cx="52" cy="47" r="0.6" fill="white" opacity="0.3"/>
  
  <!-- Row 10 (mirror of 2) -->
  <circle cx="17" cy="52" r="0.6" fill="white" opacity="0.3"/>
  <circle cx="22" cy="52" r="0.9" fill="white" opacity="0.45"/>
  <circle cx="27" cy="52" r="1.1" fill="white" opacity="0.55"/>
  <circle cx="32" cy="52" r="1.2" fill="white" opacity="0.6"/>
  <circle cx="37" cy="52" r="1.1" fill="white" opacity="0.55"/>
  <circle cx="42" cy="52" r="0.9" fill="white" opacity="0.45"/>
  <circle cx="47" cy="52" r="0.6" fill="white" opacity="0.3"/>
  
  <!-- Row 11 (bottom, mirror of 1) -->
  <circle cx="22" cy="57" r="0.5" fill="white" opacity="0.25"/>
  <circle cx="27" cy="57" r="0.6" fill="white" opacity="0.3"/>
  <circle cx="32" cy="57" r="0.7" fill="white" opacity="0.35"/>
  <circle cx="37" cy="57" r="0.6" fill="white" opacity="0.3"/>
  <circle cx="42" cy="57" r="0.5" fill="white" opacity="0.25"/>
</svg>
